<svg width="50" height="50" viewBox="0 0 50 50" fill="none" xmlns="http://www.w3.org/2000/svg">
<path d="M33.7266 4.16406H16.2682C8.6849 4.16406 4.16406 8.6849 4.16406 16.2682V33.7057C4.16406 41.3099 8.6849 45.8307 16.2682 45.8307H33.7057C41.2891 45.8307 45.8099 41.3099 45.8099 33.7266V16.2682C45.8307 8.6849 41.3099 4.16406 33.7266 4.16406ZM24.9974 33.0807C20.5391 33.0807 16.9141 29.4557 16.9141 24.9974C16.9141 20.5391 20.5391 16.9141 24.9974 16.9141C29.4557 16.9141 33.0807 20.5391 33.0807 24.9974C33.0807 29.4557 29.4557 33.0807 24.9974 33.0807ZM37.3307 14.3307C37.2266 14.5807 37.0807 14.8099 36.8932 15.0182C36.6849 15.2057 36.4557 15.3516 36.2057 15.4557C35.8266 15.6167 35.4081 15.661 35.0036 15.5831C34.5992 15.5052 34.2271 15.3085 33.9349 15.0182C33.7474 14.8099 33.6016 14.5807 33.4974 14.3307C33.3904 14.0803 33.3337 13.8113 33.3307 13.5391C33.3307 13.2682 33.3932 12.9974 33.4974 12.7474C33.6016 12.4766 33.7474 12.2682 33.9349 12.0599C34.4141 11.5807 35.1432 11.3516 35.8099 11.4974C35.9557 11.5182 36.0807 11.5599 36.2057 11.6224C36.3307 11.6641 36.4557 11.7266 36.5807 11.8099C36.6849 11.8724 36.7891 11.9766 36.8932 12.0599C37.0807 12.2682 37.2266 12.4766 37.3307 12.7474C37.4349 12.9974 37.4974 13.2682 37.4974 13.5391C37.4974 13.8099 37.4349 14.0807 37.3307 14.3307Z" fill="#49A37B"/>
</svg>
