<svg width="50" height="46" viewBox="0 0 50 46" fill="none" xmlns="http://www.w3.org/2000/svg">
<path fill-rule="evenodd" clip-rule="evenodd" d="M39.5859 9.58594H10.4193C9.26868 9.58594 8.33594 10.4441 8.33594 11.5026C8.33594 12.5611 9.26868 13.4193 10.4193 13.4193H39.5859C40.7365 13.4193 41.6693 12.5611 41.6693 11.5026C41.6693 10.4441 40.7365 9.58594 39.5859 9.58594ZM39.5859 21.0859H10.4193C9.26868 21.0859 8.33594 21.9441 8.33594 23.0026C8.33594 24.0611 9.26868 24.9193 10.4193 24.9193H39.5859C40.7365 24.9193 41.6693 24.0611 41.6693 23.0026C41.6693 21.9441 40.7365 21.0859 39.5859 21.0859ZM10.4193 32.5859H39.5859C40.7365 32.5859 41.6693 33.4441 41.6693 34.5026C41.6693 35.5611 40.7365 36.4193 39.5859 36.4193H10.4193C9.26868 36.4193 8.33594 35.5611 8.33594 34.5026C8.33594 33.4441 9.26868 32.5859 10.4193 32.5859Z" fill="#373867"/>
</svg>
