<svg width="42" height="42" viewBox="0 0 42 42" fill="none" xmlns="http://www.w3.org/2000/svg">
<path d="M41.7941 19.7692C41.0857 7.68583 30.1066 -1.62667 17.4607 0.456666C8.75241 1.89417 1.77324 8.95667 0.419073 17.665C-0.372594 22.7067 0.669073 27.4775 2.93991 31.415L1.08574 38.3108C0.669073 39.8733 2.10657 41.29 3.64824 40.8525L10.4399 38.9775C13.5232 40.79 17.1274 41.8317 20.9816 41.8317C32.7316 41.8317 42.4816 31.4775 41.7941 19.7692ZM31.1691 28.7483C30.6666 29.779 29.8082 30.593 28.7524 31.04C28.1274 31.3108 27.4399 31.4358 26.7107 31.4358C25.6482 31.4358 24.5024 31.1858 23.3149 30.665C22.0493 30.1093 20.8478 29.4177 19.7316 28.6025C18.5232 27.7275 17.3982 26.7483 16.3149 25.6858C15.2316 24.6025 14.2732 23.4567 13.3982 22.2692C12.5441 21.0817 11.8566 19.8942 11.3566 18.7067C10.8566 17.5192 10.6066 16.3733 10.6066 15.29C10.6066 14.5817 10.7316 13.8942 10.9816 13.2692C11.2316 12.6233 11.6274 12.04 12.1899 11.5192C12.8566 10.8525 13.5857 10.54 14.3566 10.54C14.6482 10.54 14.9399 10.6025 15.2107 10.7275C15.4816 10.8525 15.7316 11.04 15.9191 11.3108L18.3357 14.7275C18.5232 14.9983 18.6691 15.2275 18.7524 15.4567C18.8566 15.6858 18.8982 15.8942 18.8982 16.1025C18.8982 16.3525 18.8149 16.6025 18.6691 16.8525C18.5232 17.1025 18.3357 17.3525 18.0857 17.6025L17.2941 18.4358C17.1691 18.5608 17.1274 18.6858 17.1274 18.8525C17.1274 18.9358 17.1482 19.0192 17.1691 19.1025C17.2107 19.1858 17.2316 19.2483 17.2524 19.3108C17.4399 19.665 17.7732 20.1025 18.2316 20.6442C19.207 21.7903 20.2729 22.8563 21.4191 23.8317C21.9607 24.29 22.4191 24.6025 22.7732 24.79C22.8357 24.8108 22.8982 24.8525 22.9607 24.8733C23.0441 24.915 23.1274 24.915 23.2316 24.915C23.4191 24.915 23.5441 24.8525 23.6691 24.7275L24.4607 23.9358C24.7316 23.665 24.9816 23.4775 25.2107 23.3525C25.4607 23.2067 25.6899 23.1233 25.9607 23.1233C26.1691 23.1233 26.3774 23.165 26.6066 23.2692C26.8357 23.3733 27.0857 23.4983 27.3357 23.6858L30.7941 26.1442C31.0649 26.3317 31.2524 26.5608 31.3774 26.8108C31.4816 27.0817 31.5441 27.3317 31.5441 27.6233C31.4191 27.9775 31.3357 28.3733 31.1691 28.7483Z" fill="#49A37B"/>
</svg>
