<svg width="54" height="55" viewBox="0 0 54 55" fill="none" xmlns="http://www.w3.org/2000/svg">
<path fill-rule="evenodd" clip-rule="evenodd" d="M27 27.5C28.5257 27.5 30.0172 27.9032 31.2858 28.6586C32.5544 29.4141 33.5432 30.4878 34.1271 31.7441C34.7109 33.0003 34.8637 34.3826 34.5661 35.7162C34.2684 37.0499 33.5337 38.2749 32.4548 39.2364C31.376 40.1978 30.0014 40.8526 28.505 41.1179C27.0086 41.3832 25.4575 41.247 24.0479 40.7267C22.6383 40.2063 21.4335 39.3251 20.5858 38.1945C19.7381 37.064 19.2857 35.7347 19.2857 34.375C19.2918 32.5533 20.1065 30.8078 21.5519 29.5197C22.9973 28.2315 24.9559 27.5054 27 27.5ZM27 6.875C24.9559 6.88044 22.9973 7.60652 21.5519 8.89465C20.1065 10.1828 19.2918 11.9283 19.2857 13.75H34.7143C34.7082 11.9283 33.8935 10.1828 32.4481 8.89465C31.0027 7.60652 29.0441 6.88044 27 6.875ZM46.2857 55H7.71429C5.67021 54.9946 3.71159 54.2685 2.26621 52.9804C0.820818 51.6922 0.0061048 49.9467 0 48.125L0 20.625C0.0061048 18.8033 0.820818 17.0578 2.26621 15.7697C3.71159 14.4815 5.67021 13.7554 7.71429 13.75H11.5714C11.5714 10.1033 13.1969 6.60591 16.0904 4.02728C18.9838 1.44866 22.9081 0 27 0C31.0919 0 35.0162 1.44866 37.9096 4.02728C40.8031 6.60591 42.4286 10.1033 42.4286 13.75H46.2857C48.3298 13.7554 50.2884 14.4815 51.7338 15.7697C53.1792 17.0578 53.9939 18.8033 54 20.625V48.125C53.9939 49.9467 53.1792 51.6922 51.7338 52.9804C50.2884 54.2685 48.3298 54.9946 46.2857 55Z" fill="#212121"/>
</svg>
