<svg width="49" height="40" viewBox="0 0 49 40" fill="none" xmlns="http://www.w3.org/2000/svg">
<path fill-rule="evenodd" clip-rule="evenodd" d="M7.31813 0.5H41.6815C45.2129 0.5 48.0965 3.4018 48.1244 6.9703C48.1251 7.0007 48.1252 7.03109 48.1246 7.06144V33.1134C48.1246 36.7058 45.2301 39.6361 41.6815 39.6361H7.31813C3.7695 39.6361 0.875 36.7058 0.875 33.1134V7.02268C0.875 3.43024 3.7695 0.5 7.31813 0.5ZM43.6003 6.05304C43.2452 5.34192 42.5147 4.84845 41.6814 4.84845H7.31805C6.48486 4.84845 5.75449 5.34179 5.39928 6.05276L24.5 19.5883L43.6003 6.05304ZM5.17034 11.1985L23.2684 24.0235C24.0079 24.5475 24.9921 24.5475 25.7316 24.0235L43.8291 11.1989V33.1134C43.8291 34.3042 42.8577 35.2876 41.6814 35.2876H7.31805C6.14171 35.2876 5.17034 34.3042 5.17034 33.1134V11.1985Z" fill="#373867"/>
<mask id="mask0_2776_1348" style="mask-type:luminance" maskUnits="userSpaceOnUse" x="0" y="0" width="49" height="40">
<path fill-rule="evenodd" clip-rule="evenodd" d="M7.31813 0.5H41.6815C45.2129 0.5 48.0965 3.4018 48.1244 6.9703C48.1251 7.0007 48.1252 7.03109 48.1246 7.06144V33.1134C48.1246 36.7058 45.2301 39.6361 41.6815 39.6361H7.31813C3.7695 39.6361 0.875 36.7058 0.875 33.1134V7.02268C0.875 3.43024 3.7695 0.5 7.31813 0.5ZM43.6003 6.05304C43.2452 5.34192 42.5147 4.84845 41.6814 4.84845H7.31805C6.48486 4.84845 5.75449 5.34179 5.39928 6.05276L24.5 19.5883L43.6003 6.05304ZM5.17034 11.1985L23.2684 24.0235C24.0079 24.5475 24.9921 24.5475 25.7316 24.0235L43.8291 11.1989V33.1134C43.8291 34.3042 42.8577 35.2876 41.6814 35.2876H7.31805C6.14171 35.2876 5.17034 34.3042 5.17034 33.1134V11.1985Z" fill="white"/>
</mask>
<g mask="url(#mask0_2776_1348)">
<rect x="-1.27344" y="-6.02344" width="51.5451" height="52.1814" fill="#373867"/>
</g>
</svg>
