<svg width="80" height="80" viewBox="0 0 80 80" fill="none" xmlns="http://www.w3.org/2000/svg">
<path d="M61.1111 8.90602V2.89157C61.1111 1.31084 59.6 0 57.7778 0C55.9556 0 54.4444 1.31084 54.4444 2.89157V8.6747H25.5556V2.89157C25.5556 1.31084 24.0444 0 22.2222 0C20.4 0 18.8889 1.31084 18.8889 2.89157V8.90602C6.88889 9.86988 1.06667 16.0771 0.177778 25.2916C0.0888887 26.4096 1.15556 27.3349 2.4 27.3349H77.6C78.8889 27.3349 79.9556 26.3711 79.8222 25.2916C78.9333 16.0771 73.1111 9.86988 61.1111 8.90602ZM75.5556 33.1181H4.44444C2 33.1181 0 34.853 0 36.9735V60.7229C0 72.2892 6.66667 80 22.2222 80H57.7778C73.3333 80 80 72.2892 80 60.7229V36.9735C80 34.853 78 33.1181 75.5556 33.1181ZM27.6 65.3879C27.3778 65.5422 27.1556 65.7349 26.9333 65.8506C26.6667 66.0048 26.4 66.1205 26.1333 66.1976C25.8667 66.3133 25.6 66.3904 25.3333 66.4289C25.0222 66.4675 24.7556 66.506 24.4444 66.506C23.8667 66.506 23.2889 66.3904 22.7556 66.1976C22.1778 66.0048 21.7333 65.7349 21.2889 65.3879C20.4889 64.6554 20 63.653 20 62.6506C20 61.6482 20.4889 60.6458 21.2889 59.9133C21.7333 59.5663 22.1778 59.2964 22.7556 59.1036C23.5556 58.7952 24.4444 58.7181 25.3333 58.8723C25.6 58.9108 25.8667 58.988 26.1333 59.1036C26.4 59.1807 26.6667 59.2964 26.9333 59.4506L27.6 59.9133C28.4 60.6458 28.8889 61.6482 28.8889 62.6506C28.8889 63.653 28.4 64.6554 27.6 65.3879ZM27.6 51.894C26.7556 52.588 25.6 53.0121 24.4444 53.0121C23.2889 53.0121 22.1333 52.588 21.2889 51.894C20.4889 51.1614 20 50.159 20 49.1566C20 48.1542 20.4889 47.1518 21.2889 46.4193C22.5333 45.3398 24.4889 44.9928 26.1333 45.6096C26.7111 45.8024 27.2 46.0723 27.6 46.4193C28.4 47.1518 28.8889 48.1542 28.8889 49.1566C28.8889 50.159 28.4 51.1614 27.6 51.894ZM43.1556 65.3879C42.3111 66.0819 41.1556 66.506 40 66.506C38.8444 66.506 37.6889 66.0819 36.8444 65.3879C36.0444 64.6554 35.5556 63.653 35.5556 62.6506C35.5556 61.6482 36.0444 60.6458 36.8444 59.9133C38.4889 58.4868 41.5111 58.4868 43.1556 59.9133C43.9556 60.6458 44.4444 61.6482 44.4444 62.6506C44.4444 63.653 43.9556 64.6554 43.1556 65.3879ZM43.1556 51.894L42.4889 52.3566C42.2222 52.5108 41.9556 52.6265 41.6889 52.7036C41.4222 52.8193 41.1556 52.8964 40.8889 52.9349C40.5778 52.9735 40.3111 53.0121 40 53.0121C38.8444 53.0121 37.6889 52.588 36.8444 51.894C36.0444 51.1614 35.5556 50.159 35.5556 49.1566C35.5556 48.1542 36.0444 47.1518 36.8444 46.4193C37.2444 46.0723 37.7333 45.8024 38.3111 45.6096C39.9556 44.9928 41.9111 45.3398 43.1556 46.4193C43.9556 47.1518 44.4444 48.1542 44.4444 49.1566C44.4444 50.159 43.9556 51.1614 43.1556 51.894ZM58.7111 65.3879C57.8667 66.0819 56.7111 66.506 55.5556 66.506C54.4 66.506 53.2444 66.0819 52.4 65.3879C51.6 64.6554 51.1111 63.653 51.1111 62.6506C51.1111 61.6482 51.6 60.6458 52.4 59.9133C54.0444 58.4868 57.0667 58.4868 58.7111 59.9133C59.5111 60.6458 60 61.6482 60 62.6506C60 63.653 59.5111 64.6554 58.7111 65.3879ZM58.7111 51.894L58.0444 52.3566C57.7778 52.5108 57.5111 52.6265 57.2444 52.7036C56.9778 52.8193 56.7111 52.8964 56.4444 52.9349C56.1333 52.9735 55.8222 53.0121 55.5556 53.0121C54.4 53.0121 53.2444 52.588 52.4 51.894C51.6 51.1614 51.1111 50.159 51.1111 49.1566C51.1111 48.1542 51.6 47.1518 52.4 46.4193C52.8444 46.0723 53.2889 45.8024 53.8667 45.6096C54.6667 45.3012 55.5556 45.2241 56.4444 45.3783C56.7111 45.4169 56.9778 45.494 57.2444 45.6096C57.5111 45.6867 57.7778 45.8024 58.0444 45.9566L58.7111 46.4193C59.5111 47.1518 60 48.1542 60 49.1566C60 50.159 59.5111 51.1614 58.7111 51.894Z" fill="#49A37B"/>
</svg>
