<svg width="94" height="92" viewBox="0 0 94 92" fill="none" xmlns="http://www.w3.org/2000/svg">
<path d="M89.3 11.7091H72.0667V0H65.8V11.7091H28.2V0H21.9333V11.7091H4.7C3.45393 11.7106 2.25931 12.2398 1.3782 13.1806C0.497095 14.1213 0.00145121 15.3968 0 16.7273V86.9818C0.00145121 88.3122 0.497095 89.5877 1.3782 90.5285C2.25931 91.4692 3.45393 91.9985 4.7 92H89.3C90.5461 91.9985 91.7407 91.4692 92.6218 90.5285C93.5029 89.5877 93.9986 88.3122 94 86.9818V16.7273C93.9986 15.3968 93.5029 14.1213 92.6218 13.1806C91.7407 12.2398 90.5461 11.7106 89.3 11.7091ZM87.7333 85.3091H6.26667V18.4H21.9333V26.7636H28.2V18.4H65.8V26.7636H72.0667V18.4H87.7333V85.3091Z" fill="#49A37B"/>
<path d="M44.5346 57.1589L33.8842 45.7874L29.4531 50.5188L44.5346 66.6211L69.1342 40.3561L64.7029 35.625L44.5346 57.1589Z" fill="#49A37B"/>
</svg>
