<svg width="94" height="102" viewBox="0 0 94 102" fill="none" xmlns="http://www.w3.org/2000/svg">
<path d="M70.5 0H23.5C9.4 0 0 10.6621 0 26.6553V58.6416C0 74.6348 9.4 85.2969 23.5 85.2969V96.652C23.5 100.917 27.683 103.476 30.785 101.077L51.7 85.2969H70.5C84.6 85.2969 94 74.6348 94 58.6416V26.6553C94 10.6621 84.6 0 70.5 0ZM47 64.8789C46.0651 64.8789 45.1685 64.4577 44.5075 63.7079C43.8464 62.958 43.475 61.9411 43.475 60.8806C43.475 59.8202 43.8464 58.8033 44.5075 58.0534C45.1685 57.3036 46.0651 56.8824 47 56.8824C47.9349 56.8824 48.8315 57.3036 49.4925 58.0534C50.1536 58.8033 50.525 59.8202 50.525 60.8806C50.525 61.9411 50.1536 62.958 49.4925 63.7079C48.8315 64.4577 47.9349 64.8789 47 64.8789ZM52.922 42.7551C51.089 44.1411 50.525 45.0474 50.525 46.5401V47.6596C50.525 49.8454 48.927 51.6579 47 51.6579C45.073 51.6579 43.475 49.8454 43.475 47.6596V46.5401C43.475 40.3561 47.47 37.3174 48.974 36.1446C50.713 34.8118 51.277 33.9055 51.277 32.5194C51.277 29.8539 49.35 27.6682 47 27.6682C44.65 27.6682 42.723 29.8539 42.723 32.5194C42.723 34.7052 41.125 36.5177 39.198 36.5177C37.271 36.5177 35.673 34.7052 35.673 32.5194C35.673 25.4291 40.749 19.6716 47 19.6716C53.251 19.6716 58.327 25.4291 58.327 32.5194C58.327 38.5968 54.379 41.6355 52.922 42.7551Z" fill="#49A37B"/>
</svg>
