<svg width="42" height="42" viewBox="0 0 42 42" fill="none" xmlns="http://www.w3.org/2000/svg">
<path d="M41.8307 29.7266C41.8307 37.3099 37.3099 41.8307 29.7266 41.8307H27.2474C26.1016 41.8307 25.1641 40.8932 25.1641 39.7474V27.7266C25.1641 27.1641 25.6224 26.6849 26.1849 26.6849L29.8516 26.6224C30.1432 26.6016 30.3932 26.3932 30.4557 26.1016L31.1849 22.1224C31.1991 22.0322 31.1935 21.94 31.1686 21.8522C31.1437 21.7644 31.1 21.683 31.0406 21.6137C30.9812 21.5444 30.9074 21.4887 30.8244 21.4507C30.7414 21.4126 30.6512 21.393 30.5599 21.3932L26.1224 21.4557C25.5391 21.4557 25.0807 20.9974 25.0599 20.4349L24.9766 15.3307C24.9766 14.9974 25.2474 14.7057 25.6016 14.7057L30.6016 14.6224C30.9557 14.6224 31.2266 14.3516 31.2266 13.9974L31.1432 8.9974C31.1432 8.64323 30.8724 8.3724 30.5182 8.3724L24.8932 8.45573C24.0721 8.4682 23.2615 8.64259 22.5079 8.9689C21.7543 9.29521 21.0725 9.76703 20.5016 10.3573C19.9306 10.9476 19.4818 11.6447 19.1808 12.4088C18.8798 13.1729 18.7325 13.9888 18.7474 14.8099L18.8516 20.5391C18.8724 21.1224 18.4141 21.5807 17.8307 21.6016L15.3307 21.6432C14.9766 21.6432 14.7057 21.9141 14.7057 22.2682L14.7682 26.2266C14.7682 26.5807 15.0391 26.8516 15.3932 26.8516L17.8932 26.8099C18.4766 26.8099 18.9349 27.2682 18.9557 27.8307L19.1432 39.7057C19.1641 40.8724 18.2266 41.8307 17.0599 41.8307H12.2682C4.6849 41.8307 0.164062 37.3099 0.164062 29.7057V12.2682C0.164062 4.6849 4.6849 0.164062 12.2682 0.164062H29.7266C37.3099 0.164062 41.8307 4.6849 41.8307 12.2682V29.7266Z" fill="#49A37B"/>
</svg>
